<?xml version="1.0" encoding="utf-8"?>
<!-- Uploaded to: SVG Repo, www.svgrepo.com, Generator: SVG Repo Mixer Tools -->
<svg width="800px" height="800px" viewBox="0 0 20 20" xmlns="http://www.w3.org/2000/svg">
  <g id="add-user-7" transform="translate(-2 -2)">
    <path id="secondary" fill="#2ca9bc" d="M15.29,13.19a6,6,0,0,1-8.58,0A5,5,0,0,0,3,18v1s2,2,8,2,8-2,8-2V18a5,5,0,0,0-3.71-4.81Z"/>
    <path id="primary" d="M17,5h4M19,3V7" fill="none" stroke="#000000" stroke-linecap="round" stroke-linejoin="round" stroke-width="2"/>
    <path id="primary-2" data-name="primary" d="M13,3.35A5.8,5.8,0,0,0,11,3a6,6,0,1,0,5.65,8" fill="none" stroke="#000000" stroke-linecap="round" stroke-linejoin="round" stroke-width="2"/>
    <path id="primary-3" data-name="primary" d="M15.29,13.19A5,5,0,0,1,19,18v1s-2,2-8,2-8-2-8-2V18a5,5,0,0,1,3.71-4.81" fill="none" stroke="#000000" stroke-linecap="round" stroke-linejoin="round" stroke-width="2"/>
  </g>
</svg>