<?xml version="1.0" encoding="iso-8859-1"?>
<!-- Uploaded to: SVG Repo, www.svgrepo.com, Generator: SVG Repo Mixer Tools -->
<svg height="800px" width="800px" version="1.1" id="Layer_1" xmlns="http://www.w3.org/2000/svg" xmlns:xlink="http://www.w3.org/1999/xlink" 
	 viewBox="0 0 512 512" xml:space="preserve">
<path style="fill:#CCF7F9;" d="M510.388,250.765c-0.533-1.733-13.496-42.912-51.409-83.986
	c-34.37-37.235-96.557-81.481-198.299-82.811c-1.523-0.039-3.048-0.064-4.577-0.064c-0.026,0-0.053,0.001-0.08,0.001
	c-0.008,0-0.017,0-0.025,0c-104.538,0-168.081,45.068-202.98,82.874c-37.914,41.073-50.876,82.253-51.409,83.986L0,256l1.611,5.235
	c0.533,1.733,13.495,42.912,51.409,83.986c34.37,37.235,96.558,81.481,198.3,82.811c1.523,0.039,3.048,0.064,4.577,0.064
	c0.026,0,0.053-0.001,0.08-0.001c0.008,0,0.017,0,0.025,0c104.538,0,168.081-45.068,202.98-82.874
	c37.913-41.073,50.876-82.253,51.409-83.986L512,256L510.388,250.765z"/>
<path style="fill:#00A1A7;" d="M161.383,354.373c-25.626-24.642-40.464-57.784-41.78-93.322
	c-1.349-36.432,11.57-71.209,36.377-97.926s58.534-42.172,94.967-43.521c1.713-0.063,3.447-0.095,5.156-0.095
	c35.384,0,68.951,13.536,94.512,38.117c25.627,24.64,40.465,57.782,41.781,93.32c1.349,36.433-11.572,71.212-36.377,97.928
	c-24.808,26.716-58.534,42.172-94.968,43.521c-1.713,0.063-3.447,0.095-5.156,0.095
	C220.511,392.491,186.945,378.953,161.383,354.373z"/>
<path style="fill:#003638;" d="M259.815,359.057c27.527-1.018,53.01-12.697,71.757-32.883c18.742-20.186,28.504-46.462,27.483-73.99
	c-0.992-26.852-12.204-51.894-31.568-70.514c-19.314-18.57-44.681-28.798-71.431-28.798c-1.285,0-2.579,0.024-3.874,0.072
	c-27.527,1.018-53.011,12.696-71.755,32.883c-18.744,20.186-28.505,46.462-27.485,73.989c0.995,26.853,12.206,51.896,31.571,70.515
	c19.313,18.57,44.681,28.798,71.43,28.798C257.228,359.129,258.521,359.105,259.815,359.057z"/>
<circle style="fill:#FFFFFF;" cx="273.798" cy="238.192" r="17.803"/>
</svg>